<svg fill="#fff" id="Capa_1" enable-background="new 0 0 512 512" height="512" viewBox="0 0 512 512" width="512" xmlns="http://www.w3.org/2000/svg"><g><path d="m325.538 424.151c48.967-.988 73.723-60.01 39.914-95.619-13.687-14.415-31.055-19.06-50.77-17.233l4.206-25.382h38.434c8.284 0 15-6.716 15-15s-6.716-15-15-15h-51.153c-7.338 0-13.599 5.309-14.798 12.548l-10.134 61.164c-1.917 11.568 9.625 20.766 20.464 16.341 1.114-.455 2.185-.922 3.254-1.39 26.607-11.653 47.063 4.395 46.026 24.38-.72 13.85-12.16 24.918-26.048 25.197-10.585.195-20.306-5.855-24.752-15.463-3.479-7.516-12.392-10.792-19.914-7.311-7.518 3.48-10.791 12.396-7.311 19.914 9.443 20.397 30.076 33.314 52.582 32.854z"/><path d="m143.09 313.438c8.13 1.589 16.014-3.697 17.61-11.827 1.818-9.258 10.005-15.977 19.466-15.977 11.216 0 32.25 10.555 7.4 46.061-24.589 35.133-47.699 65.232-47.699 65.232-8.319 12.11-2.481 23.134 6.784 26.223 2.751.916 5.674 1.843 74.311.981 8.284-.104 14.914-6.904 14.811-15.188-.104-8.284-6.897-14.883-15.188-14.811-14.093.178-29.059.292-41.301.311 7.596-10.142 18.281-24.717 32.86-45.548 39.632-56.625 2.153-93.262-31.979-93.262-23.762 0-44.328 16.904-48.903 40.193-1.596 8.13 3.699 16.015 11.828 17.612z"/><path d="m497 58h-51v-43c0-8.284-6.716-15-15-15h-84.667c-8.284 0-15 6.716-15 15v43h-150.666v-43c0-8.284-6.716-15-15-15h-84.667c-8.284 0-15 6.716-15 15v43h-51c-8.284 0-15 6.716-15 15v424c0 8.284 6.716 15 15 15h482c8.284 0 15-6.716 15-15 0-9.304 0-419.081 0-424 0-8.284-6.716-15-15-15zm-135.667-28h54.667v28h-54.667zm-265.333 0h54.667v28h-54.667zm386 452h-452v-283.92h452zm0-313.92h-452v-80.08h452z"/></g></svg>