<svg fill="#fff" enable-background="new 0 0 24 24" height="512" viewBox="0 0 24 24" width="512" xmlns="http://www.w3.org/2000/svg"><path d="m12 0c-6.617 0-12 5.383-12 12s5.383 12 12 12 12-5.383 12-12-5.383-12-12-12z" fill="#2196f3"/><path d="m12 24c-6.617 0-12-5.383-12-12s5.383-12 12-12 12 5.383 12 12-5.383 12-12 12zm0-22.5c-5.79 0-10.5 4.71-10.5 10.5s4.71 10.5 10.5 10.5 10.5-4.71 10.5-10.5-4.71-10.5-10.5-10.5z"/><path d="m17.25 18.5c-.192 0-.384-.073-.53-.22l-5.25-5.25c-.141-.141-.22-.332-.22-.53v-7c0-.414.336-.75.75-.75s.75.336.75.75v6.689l5.03 5.03c.293.293.293.768 0 1.061-.146.147-.338.22-.53.22z"/></svg>